<svg width="307" height="58" viewBox="0 0 307 58" fill="none" xmlns="http://www.w3.org/2000/svg">
<path d="M23.6529 7.69836C21.2589 14.7291 18.8664 21.7598 16.4739 28.7891C23.6414 28.7891 30.809 28.7891 37.9765 28.7891C36.9258 31.4311 35.8736 34.0744 34.8228 36.7164C27.7026 36.7164 20.5838 36.7164 13.4635 36.7164C11.7462 41.8417 10.0303 46.967 8.31435 52.0909C5.54338 52.1385 2.77097 52.1875 0 52.235C5.78134 34.8427 11.5641 17.4517 17.3455 0.0593872C29.913 0.106951 42.4792 0.155955 55.0468 0.203519C53.996 2.79789 52.9438 5.39226 51.893 7.98663C42.4792 7.8915 33.0668 7.79493 23.6529 7.69836Z" fill="url(#paint0_linear_2_30)"/>
<path d="M84.8593 4.14268C80.5043 0.646047 75.1487 0.259774 70.3249 0.0147504C69.8547 -0.00975197 69.6698 -0.00975197 64.3644 0.0594312C59.9148 0.117084 56.2579 0.168971 53.7564 0.203563C48.7865 12.2631 43.8179 24.3211 38.8479 36.3806C42.188 34.1379 45.5295 31.8967 48.871 29.654C45.4822 39.1032 42.0934 48.5525 38.7046 58.0003C47.0189 44.7402 55.3333 31.4801 63.6476 18.22C59.7729 20.3503 55.8981 22.4805 52.0248 24.6094C54.0976 19.1785 56.1719 13.7491 58.2448 8.31817C58.2534 8.27637 58.262 8.23602 58.2691 8.19422H69.2899C72.8407 8.19422 75.5644 8.90046 77.4624 10.3144C79.3603 11.7269 80.3108 13.8226 80.3108 16.5985C80.3108 20.565 79.0278 23.6019 76.4646 25.7091C73.9001 27.8163 70.2762 28.8699 65.5915 28.8699C64.1795 28.8757 62.766 28.8814 61.354 28.8872C59.8732 31.4816 58.391 34.0759 56.9102 36.6703C59.7299 36.7222 62.5496 36.7755 65.3693 36.8274L73.8757 52.0722H84.0823L74.8362 35.5634C79.6184 34.2244 83.3426 31.8332 86.0047 28.3871C88.6667 24.9423 89.9984 20.7149 89.9984 15.7078C89.9998 10.7497 88.2868 6.89415 84.8593 4.14268Z" fill="url(#paint1_linear_2_30)"/>
<g clip-path="url(#clip0_2_30)">
<g opacity="0.52">
<path d="M120.195 9.97675H128.175V10.9509H121.333V14.4921H124.902C126.192 14.4921 127.17 14.755 127.84 15.2807C128.511 15.8065 128.846 16.568 128.846 17.5693C128.846 18.6092 128.483 19.4095 127.762 19.9661C127.042 20.5228 126.005 20.8012 124.653 20.8012H120.195V9.97675ZM124.637 19.8888C125.646 19.8888 126.406 19.6994 126.921 19.3167C127.435 18.934 127.692 18.3695 127.692 17.6157C127.692 16.8734 127.439 16.3206 126.936 15.9534C126.434 15.5861 125.666 15.4044 124.637 15.4044H121.333V19.8888H124.637Z" fill="black" stroke="black" stroke-miterlimit="10"/>
<path d="M133.085 9.97675H134.223V20.8012H133.085V9.97675Z" fill="black" stroke="black" stroke-miterlimit="10"/>
<path d="M146.397 10.9664H140.583L140.598 20.8012H139.46V9.97675H146.397V10.9664Z" fill="black" stroke="black" stroke-miterlimit="10"/>
<path d="M150.301 20.1748C149.425 19.6955 148.739 19.0383 148.244 18.2032C147.749 17.3682 147.503 16.4288 147.503 15.3889C147.503 14.349 147.749 13.4096 148.244 12.5746C148.739 11.7395 149.425 11.0823 150.301 10.603C151.178 10.1236 152.16 9.88391 153.24 9.88391C154.319 9.88391 155.293 10.1197 156.162 10.5952C157.031 11.0707 157.713 11.7279 158.212 12.5668C158.711 13.4057 158.96 14.349 158.96 15.3889C158.96 16.4288 158.711 17.3721 158.212 18.211C157.713 19.0499 157.031 19.7071 156.162 20.1826C155.293 20.6581 154.319 20.8939 153.24 20.8939C152.16 20.8939 151.178 20.6542 150.301 20.1748ZM155.578 19.2934C156.275 18.9068 156.821 18.3695 157.214 17.6852C157.608 17.001 157.807 16.2355 157.807 15.3889C157.807 14.5423 157.608 13.7768 157.214 13.0926C156.821 12.4083 156.275 11.871 155.578 11.4844C154.88 11.0978 154.101 10.9045 153.24 10.9045C152.378 10.9045 151.595 11.0978 150.894 11.4844C150.192 11.871 149.643 12.4083 149.241 13.0926C148.84 13.7768 148.641 14.5423 148.641 15.3889C148.641 16.2355 148.84 17.001 149.241 17.6852C149.643 18.3695 150.192 18.9068 150.894 19.2934C151.595 19.68 152.378 19.8733 153.24 19.8733C154.101 19.8733 154.88 19.68 155.578 19.2934Z" fill="black" stroke="black" stroke-miterlimit="10"/>
<path d="M171.477 16.1235C171.87 16.5719 172.069 17.1557 172.069 17.8786C172.069 18.818 171.734 19.537 171.064 20.0435C170.393 20.5499 169.408 20.8012 168.11 20.8012H163.278V9.97675H167.814C168.979 9.97675 169.887 10.2126 170.541 10.6881C171.196 11.1636 171.523 11.8478 171.523 12.7447C171.523 13.3516 171.368 13.8658 171.056 14.2833C170.744 14.7008 170.308 15.014 169.747 15.2189C170.506 15.3735 171.083 15.675 171.477 16.1235ZM164.416 14.8787H167.751C168.593 14.8787 169.24 14.7086 169.692 14.3684C170.144 14.0282 170.37 13.5333 170.37 12.8839C170.37 12.2344 170.144 11.7396 169.692 11.3994C169.24 11.0592 168.593 10.8891 167.751 10.8891H164.416V14.8787ZM170.931 17.8013C170.931 16.4405 169.992 15.7601 168.11 15.7601H164.416V19.8888H168.11C169.992 19.8888 170.931 19.193 170.931 17.8013Z" fill="black" stroke="black" stroke-miterlimit="10"/>
<path d="M176.512 9.97675H177.65V18.9455L184.633 9.97675H185.677V20.8012H184.539V11.8478L177.556 20.8012H176.512V9.97675Z" fill="black" stroke="black" stroke-miterlimit="10"/>
<path d="M190.914 9.97672H192.052V18.9455L199.035 9.97672H200.079V20.8011H198.941V11.8478L191.958 20.8011H190.914V9.97672ZM193.618 8.66233C193.166 8.31053 192.937 7.82343 192.925 7.1933H193.782C193.794 7.60695 193.95 7.93168 194.25 8.1675C194.55 8.40331 194.955 8.52316 195.466 8.52316C195.964 8.52316 196.366 8.40331 196.674 8.1675C196.981 7.93168 197.137 7.60695 197.149 7.1933H198.006C197.995 7.82343 197.761 8.31053 197.305 8.66233C196.849 9.01412 196.233 9.18808 195.466 9.18808C194.686 9.18808 194.07 9.01412 193.618 8.66233Z" fill="black" stroke="black" stroke-miterlimit="10"/>
<path d="M214.576 15.8374H212.082V20.8012H210.959V9.97675H212.082V14.8323H214.576L218.27 9.97675H219.517L215.464 15.2343L219.751 20.8012H218.426L214.576 15.8374Z" fill="black" stroke="black" stroke-miterlimit="10"/>
<path d="M231.846 9.97675V20.8012H230.708V10.9664H225.44L225.315 14.5849C225.265 16.0809 225.14 17.2832 224.949 18.1956C224.758 19.1079 224.462 19.7883 224.068 20.2367C223.675 20.6852 223.149 20.9094 222.494 20.9094C222.213 20.9094 221.921 20.8746 221.621 20.8012L221.715 19.7806C221.89 19.8231 222.061 19.8424 222.229 19.8424C222.685 19.8424 223.059 19.6607 223.343 19.3012C223.628 18.9417 223.846 18.3811 223.99 17.6234C224.135 16.8657 224.236 15.8645 224.287 14.6158L224.442 9.97675H231.846Z" fill="black" stroke="black" stroke-miterlimit="10"/>
<path d="M245.656 9.97675L240.699 19.0847C240.345 19.7342 239.932 20.2174 239.46 20.5306C238.989 20.8437 238.471 21.0022 237.909 21.0022C237.492 21.0022 237.048 20.9055 236.569 20.7084L236.896 19.7806C237.27 19.9236 237.613 19.9971 237.925 19.9971C238.642 19.9971 239.23 19.6105 239.686 18.8373L239.998 18.3115L235.571 9.97675H236.803L240.606 17.3064L244.503 9.97675H245.656Z" fill="black" stroke="black" stroke-miterlimit="10"/>
<path d="M249.008 9.97675H256.988V10.9509H250.146V14.4921H253.715C255.005 14.4921 255.983 14.755 256.653 15.2807C257.324 15.8065 257.659 16.568 257.659 17.5693C257.659 18.6092 257.296 19.4095 256.575 19.9661C255.855 20.5228 254.818 20.8012 253.466 20.8012H249.008V9.97675ZM253.45 19.8888C254.459 19.8888 255.219 19.6994 255.734 19.3167C256.248 18.934 256.505 18.3695 256.505 17.6157C256.505 16.8734 256.252 16.3206 255.749 15.9534C255.247 15.5861 254.479 15.4044 253.45 15.4044H250.146V19.8888H253.45Z" fill="black" stroke="black" stroke-miterlimit="10"/>
</g>
<path d="M124.068 32.2402V38.5339H134.138V41.7851H124.068V49.7062H120.195V29.0161H135.416V32.2364H124.068V32.2402Z" fill="url(#paint2_linear_2_30)"/>
<path d="M142.149 29.0161H146.023V46.4512H156.926V49.7023H142.149V29.0161Z" fill="url(#paint3_linear_2_30)"/>
<path d="M176.644 44.9164H166.216L164.163 49.7023H160.172L169.556 29.0161H173.371L182.786 49.7023H178.733L176.644 44.9164ZM175.362 41.9049L171.43 32.8626L167.53 41.9049H175.362Z" fill="url(#paint4_linear_2_30)"/>
<path d="M190.213 49.3196C188.712 48.8673 187.528 48.2642 186.651 47.5181L187.991 44.5337C188.845 45.2025 189.893 45.7514 191.136 46.1728C192.375 46.598 193.622 46.8068 194.873 46.8068C196.42 46.8068 197.578 46.5594 198.345 46.0684C199.109 45.5775 199.491 44.9241 199.491 44.1162C199.491 43.5247 199.277 43.0376 198.852 42.6549C198.423 42.2721 197.885 41.9706 197.227 41.7541C196.572 41.5376 195.676 41.2902 194.546 41.0157C192.956 40.6407 191.67 40.2658 190.688 39.8946C189.706 39.5196 188.86 38.9359 188.155 38.1357C187.45 37.3393 187.099 36.2607 187.099 34.8999C187.099 33.7556 187.411 32.7196 188.038 31.7802C188.666 30.8446 189.609 30.1024 190.867 29.5496C192.13 28.9968 193.673 28.7223 195.501 28.7223C196.771 28.7223 198.022 28.8808 199.253 29.1939C200.485 29.5109 201.548 29.9632 202.441 30.5547L201.221 33.5392C200.309 33.0057 199.354 32.6036 198.361 32.3291C197.367 32.0547 196.405 31.9155 195.469 31.9155C193.938 31.9155 192.804 32.1706 192.06 32.6848C191.315 33.199 190.941 33.8755 190.941 34.7221C190.941 35.3136 191.156 35.7968 191.58 36.1718C192.009 36.5468 192.547 36.8406 193.205 37.0571C193.86 37.2736 194.752 37.521 195.886 37.7955C197.433 38.1511 198.708 38.5184 199.697 38.905C200.691 39.2877 201.541 39.8753 202.246 40.6639C202.951 41.4526 203.302 42.5157 203.302 43.8571C203.302 45.0014 202.99 46.0336 202.363 46.9614C201.735 47.8892 200.788 48.6276 199.518 49.1766C198.248 49.7294 196.697 50.0039 194.869 50.0039C193.268 50 191.713 49.7719 190.213 49.3196Z" fill="url(#paint5_linear_2_30)"/>
<path d="M228.655 29.0161V49.7023H224.781V40.8379H213.999V49.7023H210.125V29.0161H213.999V37.5558H224.781V29.0161H228.655Z" fill="url(#paint6_linear_2_30)"/>
<path d="M250.878 49.7062L246.619 43.6484C246.44 43.6677 246.171 43.6793 245.816 43.6793H241.109V49.7062H237.235V29.0161H245.816C247.624 29.0161 249.199 29.3099 250.539 29.9014C251.88 30.4929 252.908 31.3395 253.621 32.4413C254.335 33.543 254.693 34.8536 254.693 36.3729C254.693 37.9308 254.311 39.2684 253.547 40.3933C252.784 41.5144 251.685 42.3533 250.255 42.9062L255.052 49.7023H250.878V49.7062ZM249.479 33.3343C248.606 32.6268 247.324 32.2712 245.637 32.2712H241.109V40.5171H245.637C247.324 40.5171 248.606 40.1575 249.479 39.4385C250.352 38.7194 250.788 37.6988 250.788 36.3806C250.788 35.0585 250.352 34.0417 249.479 33.3343Z" fill="url(#paint7_linear_2_30)"/>
<path d="M264.225 47.5916C262.615 45.9873 261.812 43.6871 261.812 40.691V29.0161H265.686V40.5403C265.686 44.5994 267.455 46.629 270.989 46.629C274.504 46.629 276.262 44.5994 276.262 40.5403V29.0161H280.077V40.691C280.077 43.6871 279.278 45.9873 277.68 47.5916C276.083 49.1959 273.842 50 270.962 50C268.075 50 265.834 49.1959 264.225 47.5916Z" fill="url(#paint8_linear_2_30)"/>
<path d="M307 29.0161V49.7023H303.812L292.317 35.6963V49.7062H288.475V29.0161H291.662L303.162 43.026V29.0161H307Z" fill="url(#paint9_linear_2_30)"/>
</g>
<defs>
<linearGradient id="paint0_linear_2_30" x1="27.5234" y1="52.2354" x2="27.5234" y2="0.0597169" gradientUnits="userSpaceOnUse">
<stop stop-color="#FF5C00"/>
<stop offset="0.3043" stop-color="#FF6702"/>
<stop offset="0.8302" stop-color="#FF8306"/>
<stop offset="0.9963" stop-color="#FF8D07"/>
</linearGradient>
<linearGradient id="paint1_linear_2_30" x1="64.3522" y1="58.0007" x2="64.3522" y2="0.000334265" gradientUnits="userSpaceOnUse">
<stop stop-color="#FF5C00"/>
<stop offset="0.3043" stop-color="#FF6702"/>
<stop offset="0.8302" stop-color="#FF8306"/>
<stop offset="0.9963" stop-color="#FF8D07"/>
</linearGradient>
<linearGradient id="paint2_linear_2_30" x1="127.806" y1="49.7049" x2="127.806" y2="29.018" gradientUnits="userSpaceOnUse">
<stop stop-color="#FF5C00"/>
<stop offset="0.3043" stop-color="#FF6702"/>
<stop offset="0.8302" stop-color="#FF8306"/>
<stop offset="0.9963" stop-color="#FF8D07"/>
</linearGradient>
<linearGradient id="paint3_linear_2_30" x1="149.537" y1="49.7049" x2="149.537" y2="29.018" gradientUnits="userSpaceOnUse">
<stop stop-color="#FF5C00"/>
<stop offset="0.3043" stop-color="#FF6702"/>
<stop offset="0.8302" stop-color="#FF8306"/>
<stop offset="0.9963" stop-color="#FF8D07"/>
</linearGradient>
<linearGradient id="paint4_linear_2_30" x1="171.476" y1="49.7049" x2="171.476" y2="29.018" gradientUnits="userSpaceOnUse">
<stop stop-color="#FF5C00"/>
<stop offset="0.3043" stop-color="#FF6702"/>
<stop offset="0.8302" stop-color="#FF8306"/>
<stop offset="0.9963" stop-color="#FF8D07"/>
</linearGradient>
<linearGradient id="paint5_linear_2_30" x1="194.979" y1="50.0005" x2="194.979" y2="28.7226" gradientUnits="userSpaceOnUse">
<stop stop-color="#FF5C00"/>
<stop offset="0.3043" stop-color="#FF6702"/>
<stop offset="0.8302" stop-color="#FF8306"/>
<stop offset="0.9963" stop-color="#FF8D07"/>
</linearGradient>
<linearGradient id="paint6_linear_2_30" x1="219.392" y1="49.7049" x2="219.392" y2="29.018" gradientUnits="userSpaceOnUse">
<stop stop-color="#FF5C00"/>
<stop offset="0.3043" stop-color="#FF6702"/>
<stop offset="0.8302" stop-color="#FF8306"/>
<stop offset="0.9963" stop-color="#FF8D07"/>
</linearGradient>
<linearGradient id="paint7_linear_2_30" x1="246.142" y1="49.7049" x2="246.142" y2="29.018" gradientUnits="userSpaceOnUse">
<stop stop-color="#FF5C00"/>
<stop offset="0.3043" stop-color="#FF6702"/>
<stop offset="0.8302" stop-color="#FF8306"/>
<stop offset="0.9963" stop-color="#FF8D07"/>
</linearGradient>
<linearGradient id="paint8_linear_2_30" x1="270.942" y1="50.0005" x2="270.942" y2="29.018" gradientUnits="userSpaceOnUse">
<stop stop-color="#FF5C00"/>
<stop offset="0.3043" stop-color="#FF6702"/>
<stop offset="0.8302" stop-color="#FF8306"/>
<stop offset="0.9963" stop-color="#FF8D07"/>
</linearGradient>
<linearGradient id="paint9_linear_2_30" x1="297.737" y1="49.7049" x2="297.737" y2="29.018" gradientUnits="userSpaceOnUse">
<stop stop-color="#FF5C00"/>
<stop offset="0.3043" stop-color="#FF6702"/>
<stop offset="0.8302" stop-color="#FF8306"/>
<stop offset="0.9963" stop-color="#FF8D07"/>
</linearGradient>
<clipPath id="clip0_2_30">
<rect width="187" height="43" fill="white" transform="translate(120 7)"/>
</clipPath>
</defs>
</svg>
